<?xml version="1.0" encoding="UTF-8" standalone="no"?>
<svg
   xmlns:dc="http://purl.org/dc/elements/1.1/"
   xmlns:cc="http://creativecommons.org/ns#"
   xmlns:rdf="http://www.w3.org/1999/02/22-rdf-syntax-ns#"
   xmlns:svg="http://www.w3.org/2000/svg"
   xmlns="http://www.w3.org/2000/svg"
   xmlns:sodipodi="http://sodipodi.sourceforge.net/DTD/sodipodi-0.dtd"
   xmlns:inkscape="http://www.inkscape.org/namespaces/inkscape"
   id="Layer_1"
   style="enable-background:new 0 0 48 48;"
   version="1.1"
   viewBox="0 0 48 48"
   xml:space="preserve"
   sodipodi:docname="if_Chat_bubble_2202260.svg"
   inkscape:version="0.92.2 (5c3e80d, 2017-08-06)"><metadata
     id="metadata24"><rdf:RDF><cc:Work
         rdf:about=""><dc:format>image/svg+xml</dc:format><dc:type
           rdf:resource="http://purl.org/dc/dcmitype/StillImage" /></cc:Work></rdf:RDF></metadata><defs
     id="defs22" /><sodipodi:namedview
     pagecolor="#ffffff"
     bordercolor="#666666"
     borderopacity="1"
     objecttolerance="10"
     gridtolerance="10"
     guidetolerance="10"
     inkscape:pageopacity="0"
     inkscape:pageshadow="2"
     inkscape:window-width="640"
     inkscape:window-height="480"
     id="namedview20"
     showgrid="false"
     inkscape:zoom="4.9166667"
     inkscape:cx="24"
     inkscape:cy="24"
     inkscape:window-x="700"
     inkscape:window-y="904"
     inkscape:window-maximized="0"
     inkscape:current-layer="Layer_1" /><g
     id="g17"
     style="fill:#ffffff"><path
       d="M42,45.3l-13.3-3.7C27.3,41.9,25.8,42,24,42C11.3,42,2,33.6,2,22c0-5.4,1.9-10.1,5.6-13.8C11.7,4.2,17.6,2,24,2   c12.7,0,22,8.4,22,20c0,4.3-1.4,8.5-4,11.8V45.3z M28.7,39.6L40,42.7v-9.5l0.2-0.3C42.7,29.8,44,26,44,22c0-10.4-8.4-18-20-18   C18,4,12.7,6,9,9.6C5.7,12.9,4,17.2,4,22c0,10.4,8.4,18,20,18c1.8,0,3.2-0.1,4.5-0.4L28.7,39.6z"
       id="path15"
       style="fill:#ffffff" /></g></svg>