<?xml version="1.0" encoding="UTF-8" standalone="no"?>
<svg
   xmlns:dc="http://purl.org/dc/elements/1.1/"
   xmlns:cc="http://creativecommons.org/ns#"
   xmlns:rdf="http://www.w3.org/1999/02/22-rdf-syntax-ns#"
   xmlns:svg="http://www.w3.org/2000/svg"
   xmlns="http://www.w3.org/2000/svg"
   xmlns:sodipodi="http://sodipodi.sourceforge.net/DTD/sodipodi-0.dtd"
   xmlns:inkscape="http://www.inkscape.org/namespaces/inkscape"
   id="Layer_1"
   style="enable-background:new 0 0 48 48;"
   version="1.1"
   viewBox="0 0 48 48"
   xml:space="preserve"
   sodipodi:docname="if_Folder_2202274.svg"
   inkscape:version="0.92.2 (5c3e80d, 2017-08-06)"><metadata
     id="metadata35"><rdf:RDF><cc:Work
         rdf:about=""><dc:format>image/svg+xml</dc:format><dc:type
           rdf:resource="http://purl.org/dc/dcmitype/StillImage" /></cc:Work></rdf:RDF></metadata><defs
     id="defs33" /><sodipodi:namedview
     pagecolor="#ffffff"
     bordercolor="#666666"
     borderopacity="1"
     objecttolerance="10"
     gridtolerance="10"
     guidetolerance="10"
     inkscape:pageopacity="0"
     inkscape:pageshadow="2"
     inkscape:window-width="825"
     inkscape:window-height="480"
     id="namedview31"
     showgrid="false"
     inkscape:zoom="4.9166667"
     inkscape:cx="24"
     inkscape:cy="24"
     inkscape:window-x="981"
     inkscape:window-y="693"
     inkscape:window-maximized="0"
     inkscape:current-layer="Layer_1" /><g
     id="g28"
     style="fill:#ffffff"><path
       d="M43,46H5c-1.7,0-3-1.3-3-3V15c0-1.7,1.3-3,3-3h8.5c1.4,0,2.6,0.9,2.9,2.3l0.2,1c0.2,0.5,0.6,0.8,1,0.8H43c1.7,0,3,1.3,3,3   v24C46,44.7,44.7,46,43,46z M5,14c-0.6,0-1,0.4-1,1v28c0,0.6,0.4,1,1,1h38c0.6,0,1-0.4,1-1V19c0-0.6-0.4-1-1-1H17.6   c-1.3,0-2.5-0.9-2.9-2.2l0-0.1l-0.2-1C14.3,14.3,14,14,13.5,14H5z"
       id="path26"
       style="fill:#ffffff" /></g></svg>